<svg height="512" viewBox="0 0 128 128" width="512" xmlns="http://www.w3.org/2000/svg"><g id="icon"><rect fill="#384868" height="6.299" rx="1.034" width="65.609" x="27.215" y="118.167"/><path d="m47.082 107.1a1.034 1.034 0 0 0 -.953-.633h-8.1a1.037 1.037 0 0 0 -.973 1.388l-19.149 19.124a1.034 1.034 0 0 0 .731 1.766h7.756a1.033 1.033 0 0 0 .74-.311l19.735-20.207a1.033 1.033 0 0 0 .213-1.127z" fill="#43567c"/><path d="m102.907 126.979-19.147-19.121a1.035 1.035 0 0 0 -.972-1.388h-8.1a1.035 1.035 0 0 0 -.74 1.757l19.734 20.207a1.037 1.037 0 0 0 .74.311h7.757a1.035 1.035 0 0 0 .731-1.766z" fill="#43567c"/><path d="m102.765 32.45c.079-7.45-1.179-9.661-2.134-10.272a1.989 1.989 0 0 1 -.976-1.675c.078-11.014-8.177-13.226-8.177-13.226-14.711-6.657-31.071-6.532-31.071-6.532s-16.36-.125-31.071 6.532c0 0-8.255 2.212-8.177 13.226a1.992 1.992 0 0 1 -.976 1.675c-.955.611-2.213 2.822-2.134 10.272.127 11.921 0 39.061 0 39.061h84.722s-.133-27.14-.006-39.061z" fill="#fac77c"/><path d="m60.407 71.511h-42.361v10.7a2.5 2.5 0 0 0 .586 1.612l1.276 1.521a2.511 2.511 0 0 1 .587 1.613v4.843a2.529 2.529 0 0 0 2.534 2.509 2.508 2.508 0 0 1 2.461 2.176l1.276 9.515a5.03 5.03 0 0 0 4.608 4.348l29.033 2.189 29.033-2.189a5.03 5.03 0 0 0 4.608-4.348l1.275-9.516a2.49 2.49 0 0 1 2.465-2.176 2.509 2.509 0 0 0 2.531-2.509v-4.85a2.511 2.511 0 0 1 .587-1.613l1.275-1.521a2.506 2.506 0 0 0 .587-1.612v-10.7z" fill="#84879c"/><path d="m92.029 26.676v21.856a1.92 1.92 0 0 1 -1.923 1.924h-60.757a1.921 1.921 0 0 1 -1.924-1.924v-21.856a1.918 1.918 0 0 1 1.924-1.913h60.757a1.917 1.917 0 0 1 1.923 1.913z" fill="#4fa4d1"/><path d="m86.8 11.063a82.476 82.476 0 0 0 -22.04-4.024 1.6 1.6 0 0 0 -1.665 1.6v5.641a1.6 1.6 0 0 0 1.6 1.6h21.605a1.6 1.6 0 0 0 1.6-1.6v-1.7a1.592 1.592 0 0 0 -1.1-1.517z" fill="#43567c"/><path d="m34.011 11.063a82.476 82.476 0 0 1 22.043-4.024 1.6 1.6 0 0 1 1.665 1.6v5.641a1.6 1.6 0 0 1 -1.6 1.6h-21.604a1.6 1.6 0 0 1 -1.6-1.6v-1.7a1.592 1.592 0 0 1 1.096-1.517z" fill="#43567c"/><path d="m102.724 54.978h-24.844a1.037 1.037 0 0 0 -.627.211l-16.813 12.784-16.84-12.785a1.03 1.03 0 0 0 -.625-.21h-24.875a1.034 1.034 0 1 0 0 2.068h24.523l17.193 13.054a.914.914 0 0 0 .12.063.883.883 0 0 0 .1.056 1.023 1.023 0 0 0 .4.092 1.025 1.025 0 0 0 .4-.093.776.776 0 0 0 .1-.054 1.088 1.088 0 0 0 .122-.064l17.161-13.05h24.5a1.034 1.034 0 1 0 0-2.068z" fill="#43567c"/><path d="m38.439 96.044a4.873 4.873 0 1 0 4.872 4.873 4.873 4.873 0 0 0 -4.872-4.873z" fill="#ffc943"/><path d="m38.439 106.823a5.907 5.907 0 1 1 5.907-5.907 5.914 5.914 0 0 1 -5.907 5.907zm0-9.745a3.839 3.839 0 1 0 3.838 3.838 3.843 3.843 0 0 0 -3.838-3.838z" fill="#43567c"/><path d="m82.375 96.044a4.873 4.873 0 1 0 4.873 4.873 4.873 4.873 0 0 0 -4.873-4.873z" fill="#ffc943"/><path d="m82.375 106.823a5.907 5.907 0 1 1 5.907-5.907 5.914 5.914 0 0 1 -5.907 5.907zm0-9.745a3.839 3.839 0 1 0 3.838 3.838 3.842 3.842 0 0 0 -3.838-3.838z" fill="#43567c"/><g fill="#707583"><path d="m22.8 82.03a1.034 1.034 0 0 1 -1.037-1.03v-6.463a1.034 1.034 0 1 1 2.068 0v6.463a1.034 1.034 0 0 1 -1.031 1.03z"/><path d="m29.635 82.03a1.034 1.034 0 0 1 -1.035-1.03v-6.463a1.035 1.035 0 0 1 2.069 0v6.463a1.035 1.035 0 0 1 -1.034 1.03z"/><path d="m36.473 82.03a1.034 1.034 0 0 1 -1.034-1.03v-6.463a1.034 1.034 0 1 1 2.068 0v6.463a1.034 1.034 0 0 1 -1.034 1.03z"/><path d="m43.311 82.03a1.034 1.034 0 0 1 -1.034-1.03v-6.463a1.035 1.035 0 0 1 2.069 0v6.463a1.034 1.034 0 0 1 -1.035 1.03z"/><path d="m50.15 82.03a1.034 1.034 0 0 1 -1.035-1.03v-6.463a1.035 1.035 0 0 1 2.069 0v6.463a1.034 1.034 0 0 1 -1.034 1.03z"/><path d="m56.988 82.03a1.034 1.034 0 0 1 -1.034-1.03v-6.463a1.034 1.034 0 1 1 2.068 0v6.463a1.034 1.034 0 0 1 -1.034 1.03z"/><path d="m63.826 82.03a1.035 1.035 0 0 1 -1.035-1.03v-6.463a1.035 1.035 0 0 1 2.069 0v6.463a1.034 1.034 0 0 1 -1.034 1.03z"/><path d="m70.664 82.03a1.034 1.034 0 0 1 -1.034-1.03v-6.463a1.034 1.034 0 1 1 2.068 0v6.463a1.034 1.034 0 0 1 -1.034 1.03z"/><path d="m77.5 82.03a1.034 1.034 0 0 1 -1.032-1.03v-6.463a1.035 1.035 0 0 1 2.069 0v6.463a1.034 1.034 0 0 1 -1.037 1.03z"/><path d="m84.341 82.03a1.034 1.034 0 0 1 -1.035-1.03v-6.463a1.035 1.035 0 0 1 2.069 0v6.463a1.034 1.034 0 0 1 -1.034 1.03z"/><path d="m91.178 82.03a1.034 1.034 0 0 1 -1.034-1.03v-6.463a1.035 1.035 0 0 1 2.069 0v6.463a1.034 1.034 0 0 1 -1.035 1.03z"/><path d="m98.017 82.03a1.035 1.035 0 0 1 -1.035-1.03v-6.463a1.035 1.035 0 0 1 2.069 0v6.463a1.034 1.034 0 0 1 -1.034 1.03z"/></g><g fill="#e1e6e9" opacity=".5"><path d="m68.871 24.763-14.832 25.693h-7.489l14.843-25.693z"/><path d="m76.059 24.763-14.832 25.693h-2.42l14.832-25.693z"/></g></g></svg>