<svg height="512" viewBox="0 0 128 128" width="512" xmlns="http://www.w3.org/2000/svg"><g id="icon"><path d="m91.991 40.781h31.346v65.181h-31.346z" fill="#c8cbd2"/><path d="m4.555 40.781h35.855v65.181h-35.855z" fill="#c8cbd2"/><path d="m91.991 102.621h31.346v13.046h-31.346z" fill="#6bb3d9"/><path d="m4.555 102.621h35.855v13.046h-35.855z" fill="#6bb3d9"/><path d="m128.789 47.852-3.357-9.333a1.568 1.568 0 0 0 -1.476-1.038h-118.146a1.568 1.568 0 0 0 -1.476 1.038l-3.357 9.333a1.569 1.569 0 0 0 1.476 2.1h124.86a1.569 1.569 0 0 0 1.476-2.1z" fill="#ef5361"/><path d="m28.778 14.938h70.336v83.745h-70.336z" fill="#dbe2eb"/><path d="m28.778 96.257h70.336v19.411h-70.336z" fill="#9bc6f1"/><path d="m101.5 15.637a.9.9 0 0 0 -.873-.7h-73.365a.894.894 0 0 0 -.872.7l-2.39 10.682a.894.894 0 0 0 .872 1.09h78.144a.9.9 0 0 0 .873-1.09z" fill="#ef5361"/><path d="m57.493 78.921h12.907v18.671h-12.907z" fill="#2f3a5a"/><path d="m70.4 98.593h-12.907a1 1 0 0 1 -1-1v-18.672a1 1 0 0 1 1-1h12.907a1 1 0 0 1 1 1v18.672a1 1 0 0 1 -1 1zm-11.906-2h10.906v-16.672h-10.907z" fill="#d1ccec"/><path d="m51.105 96.257h25.682v4.853h-25.682z" fill="#e1e6e9"/><g opacity=".5"><path d="m51.105 100.387h25.682v.722h-25.682z" fill="#c8cbd2"/></g><path d="m48.564 101.109h30.764v4.853h-30.764z" fill="#e1e6e9"/><g opacity=".5"><path d="m48.564 105.357h30.764v.605h-30.764z" fill="#c8cbd2"/></g><path d="m45.796 105.962h36.3v4.853h-36.3z" fill="#e1e6e9"/><g opacity=".5"><path d="m45.796 110.161h36.3v.654h-36.3z" fill="#c8cbd2"/></g><path d="m43.223 110.815h41.447v4.853h-41.447z" fill="#e1e6e9"/><path d="m43.223 110.815h41.447v4.853h-41.447z" fill="#e1e6e9"/><path d="m36.702 31.6h13.042v15.377h-13.042z" fill="#6bb3d9"/><path d="m49.744 47.977h-13.044a1 1 0 0 1 -1-1v-15.377a1 1 0 0 1 1-1h13.044a1 1 0 0 1 1 1v15.377a1 1 0 0 1 -1 1zm-12.042-2h11.042v-13.377h-11.044z" fill="#d1ccec"/><path d="m43.223 47.977a1 1 0 0 1 -1-1v-15.377a1 1 0 0 1 2 0v15.377a1 1 0 0 1 -1 1z" fill="#d1ccec"/><path d="m57.425 31.6h13.042v15.377h-13.042z" fill="#6bb3d9"/><path d="m70.467 47.977h-13.042a1 1 0 0 1 -1-1v-15.377a1 1 0 0 1 1-1h13.042a1 1 0 0 1 1 1v15.377a1 1 0 0 1 -1 1zm-12.042-2h11.042v-13.377h-11.042z" fill="#d1ccec"/><path d="m63.946 47.977a1 1 0 0 1 -1-1v-15.377a1 1 0 1 1 2 0v15.377a1 1 0 0 1 -1 1z" fill="#d1ccec"/><path d="m78.149 31.6h13.042v15.377h-13.042z" fill="#6bb3d9"/><path d="m91.19 47.977h-13.042a1 1 0 0 1 -1-1v-15.377a1 1 0 0 1 1-1h13.042a1 1 0 0 1 1 1v15.377a1 1 0 0 1 -1 1zm-12.042-2h11.042v-13.377h-11.042z" fill="#d1ccec"/><path d="m84.669 47.977a1 1 0 0 1 -1-1v-15.377a1 1 0 0 1 2 0v15.377a1 1 0 0 1 -1 1z" fill="#d1ccec"/><path d="m36.702 54.048h13.042v15.377h-13.042z" fill="#6bb3d9"/><path d="m49.744 70.426h-13.044a1 1 0 0 1 -1-1v-15.378a1 1 0 0 1 1-1h13.044a1 1 0 0 1 1 1v15.378a1 1 0 0 1 -1 1zm-12.042-2h11.042v-13.378h-11.044z" fill="#d1ccec"/><path d="m43.223 70.426a1 1 0 0 1 -1-1v-15.378a1 1 0 0 1 2 0v15.378a1 1 0 0 1 -1 1z" fill="#d1ccec"/><path d="m57.425 54.048h13.042v15.377h-13.042z" fill="#6bb3d9"/><path d="m70.467 70.426h-13.042a1 1 0 0 1 -1-1v-15.378a1 1 0 0 1 1-1h13.042a1 1 0 0 1 1 1v15.378a1 1 0 0 1 -1 1zm-12.042-2h11.042v-13.378h-11.042z" fill="#d1ccec"/><path d="m63.946 70.426a1 1 0 0 1 -1-1v-15.378a1 1 0 0 1 2 0v15.378a1 1 0 0 1 -1 1z" fill="#d1ccec"/><path d="m78.149 54.048h13.042v15.377h-13.042z" fill="#6bb3d9"/><path d="m91.19 70.426h-13.042a1 1 0 0 1 -1-1v-15.378a1 1 0 0 1 1-1h13.042a1 1 0 0 1 1 1v15.378a1 1 0 0 1 -1 1zm-12.042-2h11.042v-13.378h-11.042z" fill="#d1ccec"/><path d="m84.669 70.426a1 1 0 0 1 -1-1v-15.378a1 1 0 1 1 2 0v15.378a1 1 0 0 1 -1 1z" fill="#d1ccec"/><path d="m36.702 76.496h13.042v15.377h-13.042z" fill="#6bb3d9"/><path d="m49.744 92.874h-13.044a1 1 0 0 1 -1-1v-15.374a1 1 0 0 1 1-1h13.044a1 1 0 0 1 1 1v15.374a1 1 0 0 1 -1 1zm-12.042-2h11.042v-13.374h-11.044z" fill="#d1ccec"/><path d="m43.223 92.874a1 1 0 0 1 -1-1v-15.374a1 1 0 0 1 2 0v15.374a1 1 0 0 1 -1 1z" fill="#d1ccec"/><path d="m78.149 76.496h13.042v15.377h-13.042z" fill="#6bb3d9"/><path d="m91.19 92.874h-13.042a1 1 0 0 1 -1-1v-15.374a1 1 0 0 1 1-1h13.042a1 1 0 0 1 1 1v15.374a1 1 0 0 1 -1 1zm-12.042-2h11.042v-13.374h-11.042z" fill="#d1ccec"/><path d="m84.669 92.874a1 1 0 0 1 -1-1v-15.374a1 1 0 0 1 2 0v15.374a1 1 0 0 1 -1 1z" fill="#d1ccec"/><path d="m106.929 58.579h8.303v11.595h-8.303z" fill="#6bb3d9"/><path d="m115.232 71.174h-8.3a1 1 0 0 1 -1-1v-11.6a1 1 0 0 1 1-1h8.3a1 1 0 0 1 1 1v11.6a1 1 0 0 1 -1 1zm-7.3-2h6.3v-9.6h-6.3z" fill="#dbe2eb"/><path d="m106.929 81.196h8.303v11.595h-8.303z" fill="#6bb3d9"/><path d="m115.232 93.791h-8.3a1 1 0 0 1 -1-1v-11.591a1 1 0 0 1 1-1h8.3a1 1 0 0 1 1 1v11.6a1 1 0 0 1 -1 .991zm-7.3-2h6.3v-9.591h-6.3z" fill="#dbe2eb"/><path d="m13.135 58.579h8.303v11.595h-8.303z" fill="#6bb3d9"/><path d="m21.438 71.174h-8.3a1 1 0 0 1 -1-1v-11.6a1 1 0 0 1 1-1h8.3a1 1 0 0 1 1 1v11.6a1 1 0 0 1 -1 1zm-7.3-2h6.3v-9.6h-6.3z" fill="#dbe2eb"/><path d="m13.135 81.196h8.303v11.595h-8.303z" fill="#6bb3d9"/><path d="m21.438 93.791h-8.3a1 1 0 0 1 -1-1v-11.591a1 1 0 0 1 1-1h8.3a1 1 0 0 1 1 1v11.6a1 1 0 0 1 -1 .991zm-7.3-2h6.3v-9.591h-6.3z" fill="#dbe2eb"/></g></svg>