<svg height="512" viewBox="0 0 128 128" width="512" xmlns="http://www.w3.org/2000/svg"><g id="icon"><rect fill="#e1e6e9" height="128" rx="9.614" width="97.107" x="18.294"/><rect fill="#e68e8b" height="128" rx="9.614" width="97.107" x="12.599"/><path d="m21.768.022a9.606 9.606 0 0 0 -9.168 9.592v108.772a9.607 9.607 0 0 0 9.169 9.592z" fill="#d87674"/><g fill="#fff"><path d="m61.152 77.479a32.77 32.77 0 1 1 32.77-32.77 32.807 32.807 0 0 1 -32.77 32.77zm0-62.766a30 30 0 1 0 30 30 30.03 30.03 0 0 0 -30-30z"/><path d="m61.152 77.479c-9.21 0-16.424-14.394-16.424-32.77s7.214-32.77 16.424-32.77 16.425 14.394 16.425 32.77-7.215 32.77-16.425 32.77zm0-62.766c-7.4 0-13.651 13.736-13.651 30s6.252 30 13.651 30 13.648-13.744 13.648-30.004-6.248-29.996-13.648-29.996z"/><path d="m61.155 34.236c-10.4 0-20.247-2.452-26.349-6.56l1.55-2.3c5.662 3.812 14.933 6.088 24.8 6.088s19.137-2.276 24.8-6.088l1.549 2.3c-6.105 4.108-15.954 6.56-26.35 6.56z"/><path d="m85.954 64.04c-5.662-3.812-14.933-6.088-24.8-6.088s-19.137 2.276-24.8 6.088l-1.55-2.3c6.1-4.108 15.953-6.561 26.349-6.561s20.247 2.452 26.347 6.56z"/><path d="m92.535 46.1h-62.766a1.387 1.387 0 0 1 0-2.774h62.766a1.387 1.387 0 0 1 0 2.774z"/><path d="m33.294 91.178h55.716v2.774h-55.716z"/><path d="m33.294 102.938h55.716v2.774h-55.716z"/></g></g></svg>